<mxfile host="Electron" agent="Mozilla/5.0 (Windows NT 10.0; Win64; x64) AppleWebKit/537.36 (KHTML, like Gecko) draw.io/24.7.8 Chrome/128.0.6613.36 Electron/32.0.1 Safari/537.36" version="24.7.8">
  <diagram name="PÃ¡gina-1" id="j8VbwejSO3JAgY-KK_nX">
    <mxGraphModel dx="926" dy="560" grid="1" gridSize="10" guides="1" tooltips="1" connect="1" arrows="1" fold="1" page="1" pageScale="1" pageWidth="827" pageHeight="1169" math="0" shadow="0">
      <root>
        <mxCell id="0" />
        <mxCell id="1" parent="0" />
        <mxCell id="fQs13y5MazAwnNlZwuFi-2" value="VINCULO" style="whiteSpace=wrap;html=1;" vertex="1" parent="1">
          <mxGeometry x="540" y="60" width="120" height="60" as="geometry" />
        </mxCell>
        <mxCell id="fQs13y5MazAwnNlZwuFi-7" value="" style="edgeStyle=orthogonalEdgeStyle;rounded=0;orthogonalLoop=1;jettySize=auto;html=1;" edge="1" parent="1" source="fQs13y5MazAwnNlZwuFi-3" target="fQs13y5MazAwnNlZwuFi-6">
          <mxGeometry relative="1" as="geometry" />
        </mxCell>
        <mxCell id="fQs13y5MazAwnNlZwuFi-15" value="" style="edgeStyle=orthogonalEdgeStyle;rounded=0;orthogonalLoop=1;jettySize=auto;html=1;" edge="1" parent="1" source="fQs13y5MazAwnNlZwuFi-3" target="fQs13y5MazAwnNlZwuFi-6">
          <mxGeometry relative="1" as="geometry" />
        </mxCell>
        <mxCell id="fQs13y5MazAwnNlZwuFi-18" value="" style="edgeStyle=orthogonalEdgeStyle;rounded=0;orthogonalLoop=1;jettySize=auto;html=1;" edge="1" parent="1" source="fQs13y5MazAwnNlZwuFi-3" target="fQs13y5MazAwnNlZwuFi-17">
          <mxGeometry relative="1" as="geometry" />
        </mxCell>
        <mxCell id="fQs13y5MazAwnNlZwuFi-21" style="edgeStyle=orthogonalEdgeStyle;rounded=0;orthogonalLoop=1;jettySize=auto;html=1;entryX=0.5;entryY=1;entryDx=0;entryDy=0;" edge="1" parent="1" source="fQs13y5MazAwnNlZwuFi-3" target="fQs13y5MazAwnNlZwuFi-12">
          <mxGeometry relative="1" as="geometry" />
        </mxCell>
        <mxCell id="fQs13y5MazAwnNlZwuFi-23" value="" style="edgeStyle=orthogonalEdgeStyle;rounded=0;orthogonalLoop=1;jettySize=auto;html=1;" edge="1" parent="1" source="fQs13y5MazAwnNlZwuFi-3" target="fQs13y5MazAwnNlZwuFi-22">
          <mxGeometry relative="1" as="geometry" />
        </mxCell>
        <mxCell id="fQs13y5MazAwnNlZwuFi-28" style="edgeStyle=orthogonalEdgeStyle;rounded=0;orthogonalLoop=1;jettySize=auto;html=1;entryX=0.5;entryY=0;entryDx=0;entryDy=0;" edge="1" parent="1" source="fQs13y5MazAwnNlZwuFi-3" target="fQs13y5MazAwnNlZwuFi-25">
          <mxGeometry relative="1" as="geometry">
            <Array as="points">
              <mxPoint x="320" y="325" />
              <mxPoint x="340" y="325" />
            </Array>
          </mxGeometry>
        </mxCell>
        <mxCell id="fQs13y5MazAwnNlZwuFi-40" style="edgeStyle=orthogonalEdgeStyle;rounded=0;orthogonalLoop=1;jettySize=auto;html=1;entryX=0.5;entryY=1;entryDx=0;entryDy=0;" edge="1" parent="1" source="fQs13y5MazAwnNlZwuFi-3" target="fQs13y5MazAwnNlZwuFi-38">
          <mxGeometry relative="1" as="geometry">
            <Array as="points">
              <mxPoint x="280" y="240" />
              <mxPoint x="280" y="230" />
              <mxPoint x="275" y="230" />
            </Array>
          </mxGeometry>
        </mxCell>
        <mxCell id="fQs13y5MazAwnNlZwuFi-3" value="USUARIO" style="whiteSpace=wrap;html=1;" vertex="1" parent="1">
          <mxGeometry x="300" y="230" width="120" height="60" as="geometry" />
        </mxCell>
        <mxCell id="fQs13y5MazAwnNlZwuFi-35" value="" style="edgeStyle=orthogonalEdgeStyle;rounded=0;orthogonalLoop=1;jettySize=auto;html=1;" edge="1" parent="1" source="fQs13y5MazAwnNlZwuFi-4" target="fQs13y5MazAwnNlZwuFi-34">
          <mxGeometry relative="1" as="geometry" />
        </mxCell>
        <mxCell id="fQs13y5MazAwnNlZwuFi-4" value="IMAGEN" style="whiteSpace=wrap;html=1;" vertex="1" parent="1">
          <mxGeometry x="340" y="460" width="120" height="60" as="geometry" />
        </mxCell>
        <mxCell id="fQs13y5MazAwnNlZwuFi-31" value="" style="edgeStyle=orthogonalEdgeStyle;rounded=0;orthogonalLoop=1;jettySize=auto;html=1;" edge="1" parent="1" source="fQs13y5MazAwnNlZwuFi-5" target="fQs13y5MazAwnNlZwuFi-30">
          <mxGeometry relative="1" as="geometry" />
        </mxCell>
        <mxCell id="fQs13y5MazAwnNlZwuFi-5" value="COMENTARIO" style="whiteSpace=wrap;html=1;" vertex="1" parent="1">
          <mxGeometry x="70" y="450" width="120" height="60" as="geometry" />
        </mxCell>
        <mxCell id="fQs13y5MazAwnNlZwuFi-8" value="" style="edgeStyle=orthogonalEdgeStyle;rounded=0;orthogonalLoop=1;jettySize=auto;html=1;" edge="1" parent="1" source="fQs13y5MazAwnNlZwuFi-6" target="fQs13y5MazAwnNlZwuFi-5">
          <mxGeometry relative="1" as="geometry" />
        </mxCell>
        <mxCell id="fQs13y5MazAwnNlZwuFi-6" value="escribe" style="rhombus;whiteSpace=wrap;html=1;" vertex="1" parent="1">
          <mxGeometry x="190" y="320" width="60" height="60" as="geometry" />
        </mxCell>
        <mxCell id="fQs13y5MazAwnNlZwuFi-14" style="edgeStyle=orthogonalEdgeStyle;rounded=0;orthogonalLoop=1;jettySize=auto;html=1;entryX=0;entryY=0.5;entryDx=0;entryDy=0;" edge="1" parent="1" source="fQs13y5MazAwnNlZwuFi-12" target="fQs13y5MazAwnNlZwuFi-2">
          <mxGeometry relative="1" as="geometry" />
        </mxCell>
        <mxCell id="fQs13y5MazAwnNlZwuFi-12" value="genera un" style="rhombus;whiteSpace=wrap;html=1;" vertex="1" parent="1">
          <mxGeometry x="330" y="60" width="60" height="60" as="geometry" />
        </mxCell>
        <mxCell id="fQs13y5MazAwnNlZwuFi-20" style="edgeStyle=orthogonalEdgeStyle;rounded=0;orthogonalLoop=1;jettySize=auto;html=1;entryX=1;entryY=0.5;entryDx=0;entryDy=0;" edge="1" parent="1" source="fQs13y5MazAwnNlZwuFi-17" target="fQs13y5MazAwnNlZwuFi-4">
          <mxGeometry relative="1" as="geometry">
            <Array as="points">
              <mxPoint x="560" y="490" />
            </Array>
          </mxGeometry>
        </mxCell>
        <mxCell id="fQs13y5MazAwnNlZwuFi-17" value="publica" style="rhombus;whiteSpace=wrap;html=1;" vertex="1" parent="1">
          <mxGeometry x="530" y="360" width="60" height="60" as="geometry" />
        </mxCell>
        <mxCell id="fQs13y5MazAwnNlZwuFi-24" value="" style="edgeStyle=orthogonalEdgeStyle;rounded=0;orthogonalLoop=1;jettySize=auto;html=1;" edge="1" parent="1" source="fQs13y5MazAwnNlZwuFi-22" target="fQs13y5MazAwnNlZwuFi-4">
          <mxGeometry relative="1" as="geometry" />
        </mxCell>
        <mxCell id="fQs13y5MazAwnNlZwuFi-22" value="descarga" style="rhombus;whiteSpace=wrap;html=1;" vertex="1" parent="1">
          <mxGeometry x="414" y="360" width="56" height="60" as="geometry" />
        </mxCell>
        <mxCell id="fQs13y5MazAwnNlZwuFi-29" style="edgeStyle=orthogonalEdgeStyle;rounded=0;orthogonalLoop=1;jettySize=auto;html=1;entryX=0.25;entryY=0;entryDx=0;entryDy=0;" edge="1" parent="1" source="fQs13y5MazAwnNlZwuFi-25" target="fQs13y5MazAwnNlZwuFi-4">
          <mxGeometry relative="1" as="geometry" />
        </mxCell>
        <mxCell id="fQs13y5MazAwnNlZwuFi-25" value="comparte" style="rhombus;whiteSpace=wrap;html=1;" vertex="1" parent="1">
          <mxGeometry x="310" y="360" width="60" height="60" as="geometry" />
        </mxCell>
        <mxCell id="fQs13y5MazAwnNlZwuFi-32" value="" style="edgeStyle=orthogonalEdgeStyle;rounded=0;orthogonalLoop=1;jettySize=auto;html=1;" edge="1" parent="1" source="fQs13y5MazAwnNlZwuFi-30" target="fQs13y5MazAwnNlZwuFi-4">
          <mxGeometry relative="1" as="geometry" />
        </mxCell>
        <mxCell id="fQs13y5MazAwnNlZwuFi-30" value="pertenece" style="rhombus;whiteSpace=wrap;html=1;" vertex="1" parent="1">
          <mxGeometry x="240" y="460" width="50" height="60" as="geometry" />
        </mxCell>
        <mxCell id="fQs13y5MazAwnNlZwuFi-33" value="Practica 2 - Ejercicio 5&lt;br&gt;Modelado Conceptual" style="text;html=1;align=center;verticalAlign=middle;resizable=0;points=[];autosize=1;strokeColor=none;fillColor=none;" vertex="1" parent="1">
          <mxGeometry x="60" y="20" width="140" height="40" as="geometry" />
        </mxCell>
        <mxCell id="fQs13y5MazAwnNlZwuFi-37" value="" style="edgeStyle=orthogonalEdgeStyle;rounded=0;orthogonalLoop=1;jettySize=auto;html=1;" edge="1" parent="1" source="fQs13y5MazAwnNlZwuFi-34" target="fQs13y5MazAwnNlZwuFi-36">
          <mxGeometry relative="1" as="geometry" />
        </mxCell>
        <mxCell id="fQs13y5MazAwnNlZwuFi-34" value="&lt;div&gt;&lt;font style=&quot;font-size: 9px;&quot;&gt;&lt;br&gt;&lt;/font&gt;&lt;/div&gt;&lt;font style=&quot;font-size: 9px;&quot;&gt;corresponde&amp;nbsp;&lt;br&gt;a&lt;/font&gt;" style="rhombus;whiteSpace=wrap;html=1;" vertex="1" parent="1">
          <mxGeometry x="372.5" y="555" width="55" height="60" as="geometry" />
        </mxCell>
        <mxCell id="fQs13y5MazAwnNlZwuFi-36" value="TEMATICA" style="whiteSpace=wrap;html=1;" vertex="1" parent="1">
          <mxGeometry x="340" y="650" width="120" height="60" as="geometry" />
        </mxCell>
        <mxCell id="fQs13y5MazAwnNlZwuFi-38" value="DIRECCION" style="ellipse;whiteSpace=wrap;html=1;" vertex="1" parent="1">
          <mxGeometry x="240" y="160" width="70" height="50" as="geometry" />
        </mxCell>
      </root>
    </mxGraphModel>
  </diagram>
</mxfile>
